<svg width="400" height="400" viewBox="0 0 400 400" xmlns="http://www.w3.org/2000/svg">
<defs>
    <filter id="shadow" x="-20%" y="-20%" width="140%" height="140%">
        <feDropShadow dx="2" dy="4" stdDeviation="3" flood-opacity="0.3"/>
    </filter>
    <filter id="glow" x="-50%" y="-50%" width="200%" height="200%">
        <feGaussianBlur stdDeviation="8" result="blur"/>
        <feMerge><feMergeNode in="blur"/><feMergeNode in="SourceGraphic"/></feMerge>
    </filter>
    <linearGradient id="rainbow-body" x1="0%" y1="0%" x2="100%" y2="100%">
        <stop offset="0%" stop-color="#FF6B6B"/><stop offset="25%" stop-color="#FFE66D"/>
        <stop offset="50%" stop-color="#4ECDC4"/><stop offset="75%" stop-color="#45B7D1"/>
        <stop offset="100%" stop-color="#DDA0DD"/>
    </linearGradient>
    <radialGradient id="galaxy-body" cx="30%" cy="30%">
        <stop offset="0%" stop-color="#E6E6FA"/><stop offset="50%" stop-color="#9370DB"/>
        <stop offset="100%" stop-color="#1A0033"/>
    </radialGradient>
    <linearGradient id="holo-body" x1="0%" y1="0%" x2="100%" y2="100%">
        <stop offset="0%" stop-color="#FF00FF"/><stop offset="50%" stop-color="#00FFFF"/>
        <stop offset="100%" stop-color="#FFFF00"/>
    </linearGradient>
    <linearGradient id="sky-gradient" x1="0%" y1="0%" x2="0%" y2="100%">
        <stop offset="0%" stop-color="#87CEEB"/><stop offset="100%" stop-color="#E0F4FF"/>
    </linearGradient>
    <linearGradient id="grass-gradient" x1="0%" y1="0%" x2="0%" y2="100%">
        <stop offset="0%" stop-color="#90EE90"/><stop offset="100%" stop-color="#228B22"/>
    </linearGradient>
    <linearGradient id="sunset-gradient" x1="0%" y1="0%" x2="0%" y2="100%">
        <stop offset="0%" stop-color="#FF6B6B"/><stop offset="50%" stop-color="#FFE66D"/>
        <stop offset="100%" stop-color="#4ECDC4"/>
    </linearGradient>
    <linearGradient id="aurora-gradient" x1="0%" y1="0%" x2="100%" y2="100%">
        <stop offset="0%" stop-color="#0D1B2A"/><stop offset="30%" stop-color="#00FF7F"/>
        <stop offset="70%" stop-color="#FF00FF"/><stop offset="100%" stop-color="#0D1B2A"/>
    </linearGradient>
    <radialGradient id="multiverse-gradient" cx="50%" cy="50%">
        <stop offset="0%" stop-color="#FFD700"/><stop offset="40%" stop-color="#FF00FF"/>
        <stop offset="70%" stop-color="#00FFFF"/><stop offset="100%" stop-color="#000"/>
    </radialGradient>
    <linearGradient id="rift-gradient" x1="0%" y1="0%" x2="100%" y2="100%">
        <stop offset="0%" stop-color="#000"/><stop offset="30%" stop-color="#9400D3"/>
        <stop offset="50%" stop-color="#00FFFF"/><stop offset="70%" stop-color="#9400D3"/>
        <stop offset="100%" stop-color="#000"/>
    </linearGradient>
    <linearGradient id="heaven-gradient" x1="0%" y1="0%" x2="0%" y2="100%">
        <stop offset="0%" stop-color="#FFF"/><stop offset="50%" stop-color="#FFD700" stop-opacity="0.3"/>
        <stop offset="100%" stop-color="#F0F8FF"/>
    </linearGradient>
    <clipPath id="head-clip"><ellipse cx="200" cy="200" rx="110" ry="115"/></clipPath>
</defs>
<rect width="400" height="400" fill="#0D1B2A"/>
<circle cx="367" cy="53" r="1" fill="white" opacity="0.4"/>
<circle cx="334" cy="106" r="2" fill="white" opacity="0.5"/>
<circle cx="301" cy="159" r="1" fill="white" opacity="0.6000000000000001"/>
<circle cx="268" cy="212" r="2" fill="white" opacity="0.7000000000000001"/>
<circle cx="235" cy="265" r="1" fill="white" opacity="0.8"/>
<circle cx="202" cy="318" r="2" fill="white" opacity="0.4"/>
<circle cx="169" cy="371" r="1" fill="white" opacity="0.5"/>
<circle cx="136" cy="24" r="2" fill="white" opacity="0.6000000000000001"/>
<circle cx="103" cy="77" r="1" fill="white" opacity="0.7000000000000001"/>
<circle cx="70" cy="130" r="2" fill="white" opacity="0.8"/>
<circle cx="37" cy="183" r="1" fill="white" opacity="0.4"/>
<circle cx="4" cy="236" r="2" fill="white" opacity="0.5"/>
<circle cx="371" cy="289" r="1" fill="white" opacity="0.6000000000000001"/>
<circle cx="338" cy="342" r="2" fill="white" opacity="0.7000000000000001"/>
<circle cx="305" cy="395" r="1" fill="white" opacity="0.8"/>
<circle cx="272" cy="48" r="2" fill="white" opacity="0.4"/>
<circle cx="239" cy="101" r="1" fill="white" opacity="0.5"/>
<circle cx="206" cy="154" r="2" fill="white" opacity="0.6000000000000001"/>
<circle cx="173" cy="207" r="1" fill="white" opacity="0.7000000000000001"/>
<circle cx="140" cy="260" r="2" fill="white" opacity="0.8"/>
<circle cx="107" cy="313" r="1" fill="white" opacity="0.4"/>
<circle cx="74" cy="366" r="2" fill="white" opacity="0.5"/>
<circle cx="41" cy="19" r="1" fill="white" opacity="0.6000000000000001"/>
<circle cx="8" cy="72" r="2" fill="white" opacity="0.7000000000000001"/>
<circle cx="375" cy="125" r="1" fill="white" opacity="0.8"/>
<circle cx="342" cy="178" r="2" fill="white" opacity="0.4"/>
<circle cx="309" cy="231" r="1" fill="white" opacity="0.5"/>
<circle cx="276" cy="284" r="2" fill="white" opacity="0.6000000000000001"/>
<circle cx="243" cy="337" r="1" fill="white" opacity="0.7000000000000001"/>
<circle cx="210" cy="390" r="2" fill="white" opacity="0.8"/>
<circle cx="177" cy="43" r="1" fill="white" opacity="0.4"/>
<circle cx="144" cy="96" r="2" fill="white" opacity="0.5"/>
<circle cx="111" cy="149" r="1" fill="white" opacity="0.6000000000000001"/>
<circle cx="78" cy="202" r="2" fill="white" opacity="0.7000000000000001"/>
<circle cx="45" cy="255" r="1" fill="white" opacity="0.8"/>
<circle cx="12" cy="308" r="2" fill="white" opacity="0.4"/>
<circle cx="379" cy="361" r="1" fill="white" opacity="0.5"/>
<circle cx="346" cy="14" r="2" fill="white" opacity="0.6000000000000001"/>
<circle cx="313" cy="67" r="1" fill="white" opacity="0.7000000000000001"/>
<circle cx="280" cy="120" r="2" fill="white" opacity="0.8"/>

<ellipse cx="115" cy="140" rx="45" ry="50" fill="#F5F5DC" filter="url(#shadow)"/>
<ellipse cx="115" cy="140" rx="30" ry="35" fill="#FFB6C1"/>
<ellipse cx="115" cy="145" rx="18" ry="22" fill="#FF9999"/>
<ellipse cx="285" cy="140" rx="45" ry="50" fill="#F5F5DC" filter="url(#shadow)"/>
<ellipse cx="285" cy="140" rx="30" ry="35" fill="#FFB6C1"/>
<ellipse cx="285" cy="145" rx="18" ry="22" fill="#FF9999"/>
<ellipse cx="200" cy="200" rx="110" ry="115" fill="#F5F5DC" filter="url(#shadow)"/>
<ellipse cx="180" cy="140" rx="50" ry="30" fill="#FFFFF0" opacity="0.3"/>
<g clip-path="url(#head-clip)"><ellipse cx="175" cy="185" rx="45" ry="35" fill="#FF00FF" opacity="0.12"/><ellipse cx="230" cy="225" rx="40" ry="30" fill="#00FFFF" opacity="0.12"/></g>
<ellipse cx="200" cy="235" rx="70" ry="60" fill="#FFDAB9"/>
<ellipse cx="200" cy="250" rx="55" ry="40" fill="#DEB887" opacity="0.3"/>
<ellipse cx="162" cy="185" rx="22" ry="24" fill="#000" opacity="0.08"/>
<ellipse cx="238" cy="185" rx="22" ry="24" fill="#000" opacity="0.08"/>
<ellipse cx="162" cy="185" rx="20" ry="24" fill="white"/>
<circle cx="162" cy="185" r="14" fill="#3D2314"/>
<circle cx="162" cy="185" r="8" fill="#000"/>
<circle cx="167" cy="180" r="5" fill="white"/>
<ellipse cx="238" cy="185" rx="20" ry="24" fill="white"/>
<circle cx="238" cy="185" r="14" fill="#3D2314"/>
<circle cx="238" cy="185" r="8" fill="#000"/>
<circle cx="243" cy="180" r="5" fill="white"/>
<g>
            <ellipse cx="200" cy="230" rx="25" ry="18" fill="#8B4513"/>
            <ellipse cx="200" cy="230" rx="22" ry="15" fill="#A0522D"/>
            <ellipse cx="192" cy="230" rx="5" ry="7" fill="#5D2E0C"/>
            <ellipse cx="208" cy="230" rx="5" ry="7" fill="#5D2E0C"/>
        </g>
<path d="M170 260 Q200 285 230 260" stroke="#5D2E0C" stroke-width="4" fill="none"/>
<path d="M147 160 Q162 150 177 160" stroke="#5D2E0C" stroke-width="3" fill="none"/>
<path d="M223 160 Q238 150 253 160" stroke="#5D2E0C" stroke-width="3" fill="none"/>
<polygon points="165,70 180,45 200,65 220,45 235,70" fill="#FFD700" stroke="#DAA520" stroke-width="2"/><rect x="165" y="70" width="70" height="12" fill="#FFD700" stroke="#DAA520" stroke-width="2"/>
<ellipse cx="200" cy="340" rx="100" ry="20" fill="#000" opacity="0.2"/>
<g transform="translate(325, 15)">
            <rect width="65" height="22" rx="4" fill="#A0A0A0" opacity="0.9"/>
            <text x="32" y="15" font-size="8" fill="#FFF" text-anchor="middle" font-family="sans-serif" font-weight="bold">COMMON</text>
        </g>
        <g transform="translate(10, 15)">
            <rect width="45" height="22" rx="4" fill="#333" opacity="0.8"/>
            <text x="22" y="15" font-size="9" fill="#FFF" text-anchor="middle" font-family="sans-serif">Gen 2</text>
        </g>
</svg>